<?xml version="1.0" encoding="UTF-8" standalone="no"?>
<svg
   xmlns:dc="http://purl.org/dc/elements/1.1/"
   xmlns:cc="http://creativecommons.org/ns#"
   xmlns:rdf="http://www.w3.org/1999/02/22-rdf-syntax-ns#"
   xmlns:svg="http://www.w3.org/2000/svg"
   xmlns="http://www.w3.org/2000/svg"
   xmlns:xlink="http://www.w3.org/1999/xlink"
   version="1.1"
   color="#000000"
   width="14"
   height="0.69999999"
   id="svg26">
  <metadata
     id="metadata32">
    <rdf:RDF>
      <cc:Work
         rdf:about="">
        <dc:format>image/svg+xml</dc:format>
        <dc:type
           rdf:resource="http://purl.org/dc/dcmitype/StillImage" />
        <dc:title>c1 (1) tune 1</dc:title>
      </cc:Work>
    </rdf:RDF>
  </metadata>
  <defs
     id="defs30" />
  <style
     type="text/css"
     id="style2">
.fill {fill: currentColor}
.stroke {stroke: currentColor; fill: none}
text{white-space: pre}
</style>
  <title
     id="title4">c1 (1) tune 1</title>
  <!-- Creator: abcm2ps-8.14.11 -->
  <!-- CreationDate: Jan 11, 2021 22:43 -->
  <!-- CommandLine: -g c1 -->
  <g
     stroke-width="0.7"
     id="g24"
     transform="translate(-42,-64.65)">
    <defs
       id="defs10">
      <path
         id="utclef"
         class="fill"
         d="m -50,-90 c -72,-41 -72,-158 52,-188 150,-10 220,188 90,256 -114,52 -275,0 -293,-136 -15,-181 93,-229 220,-334 88,-87 79,-133 62,-210 -51,33 -94,105 -89,186 17,267 36,374 49,574 6,96 -19,134 -77,135 -80,1 -126,-93 -61,-133 85,-41 133,101 31,105 23,17 92,37 90,-92 -10,-223 -39,-342 -50,-617 0,-90 0,-162 96,-232 56,72 63,230 22,289 -74,106 -257,168 -255,316 9,153 148,185 252,133 86,-65 29,-192 -80,-176 -71,12 -105,67 -59,124" />
      <use
         id="tclef"
         transform="matrix(0.045,0,0,0.045,0,6)"
         xlink:href="#utclef"
         x="0"
         y="0"
         width="100%"
         height="100%" />
    </defs>
    <defs
       id="defs15">
      <path
         id="hl1"
         class="stroke"
         d="M -7,0 H 7" />
    </defs>
    <use
       x="49"
       y="65"
       xlink:href="#hl1"
       id="use17"
       width="100%"
       height="100%" />
    <defs
       id="defs20">
      <path
         id="HD"
         class="fill"
         d="m -2.7,-1.4 c 1.5,-2.8 6.9,0 5.3,2.7 -1.5,2.8 -6.9,0 -5.3,-2.7 M 5.6,0 c 0,-1.5 -2.2,-3 -5.6,-3 -3.4,0 -5.6,1.5 -5.6,3 0,1.5 2.2,3 5.6,3 3.4,0 5.6,-1.5 5.6,-3" />
    </defs>
  </g>
</svg>
