<?xml version="1.0" encoding="UTF-8" standalone="no"?>
<svg
   xmlns:dc="http://purl.org/dc/elements/1.1/"
   xmlns:cc="http://creativecommons.org/ns#"
   xmlns:rdf="http://www.w3.org/1999/02/22-rdf-syntax-ns#"
   xmlns:svg="http://www.w3.org/2000/svg"
   xmlns="http://www.w3.org/2000/svg"
   xmlns:xlink="http://www.w3.org/1999/xlink"
   xmlns:sodipodi="http://sodipodi.sourceforge.net/DTD/sodipodi-0.dtd"
   xmlns:inkscape="http://www.inkscape.org/namespaces/inkscape"
   version="1.1"
   color="#000000"
   width="49.399998"
   height="24.699955"
   id="svg42"
   sodipodi:docname="lines.svg"
   inkscape:version="1.0.2 (e86c870879, 2021-01-15)">
  <metadata
     id="metadata48">
    <rdf:RDF>
      <cc:Work
         rdf:about="">
        <dc:format>image/svg+xml</dc:format>
        <dc:type
           rdf:resource="http://purl.org/dc/dcmitype/StillImage" />
        <dc:title>c1 (1) tune 1</dc:title>
      </cc:Work>
    </rdf:RDF>
  </metadata>
  <defs
     id="defs46" />
  <sodipodi:namedview
     pagecolor="#ffffff"
     bordercolor="#666666"
     borderopacity="1"
     objecttolerance="10"
     gridtolerance="10"
     guidetolerance="10"
     inkscape:pageopacity="0"
     inkscape:pageshadow="2"
     inkscape:window-width="1920"
     inkscape:window-height="1051"
     id="namedview44"
     showgrid="false"
     inkscape:zoom="9.3286496"
     inkscape:cx="36.653177"
     inkscape:cy="8.0719867"
     inkscape:window-x="0"
     inkscape:window-y="0"
     inkscape:window-maximized="1"
     inkscape:current-layer="svg42" />
  <style
     type="text/css"
     id="style2">
.fill {fill: currentColor}
.stroke {stroke: currentColor; fill: none}
text{white-space: pre}
</style>
  <title
     id="title4">c1 (1) tune 1</title>
  <!-- Creator: abcm2ps-8.14.11 -->
  <!-- CreationDate: Feb 23, 2021 17:20 -->
  <!-- CommandLine: -g c1 -->
  <g
     stroke-width="0.7"
     id="g6"
     transform="translate(-23.925862,-72.035094)">
    <!-- title: Broken rhythm markers -->
  </g>
  <g
     stroke-width="0.7"
     style="font-style:normal;font-variant:normal;font-weight:normal;font-stretch:normal;font-size:20px;line-height:normal;font-family:Times"
     id="g40"
     transform="matrix(0.47002854,0,0,0.99999815,-4.7002854,-60.649888)">
    <path
       d="M 10,85 H 115.1 M 10,79 H 115.1 M 10,73 H 115.1 M 10,67 H 115.1 M 10,61 h 105.1"
       class="stroke"
       id="path12" />
    <defs
       id="defs16">
      <path
         id="utclef"
         class="fill"
         d="m -50,-90 c -72,-41 -72,-158 52,-188 150,-10 220,188 90,256 -114,52 -275,0 -293,-136 -15,-181 93,-229 220,-334 88,-87 79,-133 62,-210 -51,33 -94,105 -89,186 17,267 36,374 49,574 6,96 -19,134 -77,135 -80,1 -126,-93 -61,-133 85,-41 133,101 31,105 23,17 92,37 90,-92 -10,-223 -39,-342 -50,-617 0,-90 0,-162 96,-232 56,72 63,230 22,289 -74,106 -257,168 -255,316 9,153 148,185 252,133 86,-65 29,-192 -80,-176 -71,12 -105,67 -59,124" />
      <use
         id="tclef"
         transform="matrix(0.045,0,0,0.045,0,6)"
         xlink:href="#utclef"
         x="0"
         y="0"
         width="100%"
         height="100%" />
    </defs>
    <defs
       id="defs21">
      <path
         id="csig"
         class="fill"
         d="m 6,-5.3 c 0.9,0 2.3,0.7 2.4,2.2 -1.2,-2 -3.6,0.1 -1.6,1.7 2,1 3.8,-3.5 -0.8,-4.7 -2,-0.4 -6.4,1.3 -5.8,7 C 0.6,7.3 8.1,7.7 9.3,1.6 7,7.2 2.6,6.7 2.5,1.6 2,-2.8 3.2,-5.9 6,-5.3" />
    </defs>
    <defs
       id="defs26">
      <ellipse
         id="hd"
         rx="4.0999999"
         ry="2.9000001"
         transform="rotate(-20)"
         class="fill"
         cx="0"
         cy="0" />
    </defs>
  </g>
</svg>
