<?xml version="1.0" encoding="UTF-8" standalone="no"?>
<svg
   xmlns:dc="http://purl.org/dc/elements/1.1/"
   xmlns:cc="http://creativecommons.org/ns#"
   xmlns:rdf="http://www.w3.org/1999/02/22-rdf-syntax-ns#"
   xmlns:svg="http://www.w3.org/2000/svg"
   xmlns="http://www.w3.org/2000/svg"
   xmlns:xlink="http://www.w3.org/1999/xlink"
   xmlns:sodipodi="http://sodipodi.sourceforge.net/DTD/sodipodi-0.dtd"
   xmlns:inkscape="http://www.inkscape.org/namespaces/inkscape"
   version="1.1"
   color="#000000"
   width="20"
   height="25.000137"
   id="svg21"
   sodipodi:docname="lines.svg"
   inkscape:version="1.0.1 (3bc2e813f5, 2020-09-07)">
  <sodipodi:namedview
     pagecolor="#ffffff"
     bordercolor="#666666"
     borderopacity="1"
     objecttolerance="10"
     gridtolerance="10"
     guidetolerance="10"
     inkscape:pageopacity="0"
     inkscape:pageshadow="2"
     inkscape:window-width="1920"
     inkscape:window-height="1051"
     id="namedview14"
     showgrid="false"
     inkscape:zoom="10.070566"
     inkscape:cx="7.5468137"
     inkscape:cy="10.707545"
     inkscape:window-x="0"
     inkscape:window-y="0"
     inkscape:window-maximized="1"
     inkscape:current-layer="svg21" />
  <metadata
     id="metadata27">
    <rdf:RDF>
      <cc:Work
         rdf:about="">
        <dc:format>image/svg+xml</dc:format>
        <dc:type
           rdf:resource="http://purl.org/dc/dcmitype/StillImage" />
        <dc:title>c1 (1) tune 1</dc:title>
      </cc:Work>
    </rdf:RDF>
  </metadata>
  <defs
     id="defs25" />
  <style
     type="text/css"
     id="style2">
.fill {fill: currentColor}
.stroke {stroke: currentColor; fill: none}
text{white-space: pre}
</style>
  <title
     id="title4">c1 (1) tune 1</title>
  <!-- Creator: abcm2ps-8.14.11 -->
  <!-- CreationDate: Jan 11, 2021 17:40 -->
  <!-- CommandLine: -g c1 -->
  <g
     stroke-width="0.7"
     id="g19"
     transform="matrix(0.25641026,0,0,1.0121513,-2.5641026,-35.071043)">
    <path
       d="M 10,59 H 88 M 10,53 H 88 M 10,47 H 88 M 10,41 H 88 M 10,35 h 78"
       class="stroke"
       id="path6" />
    <defs
       id="defs10">
      <path
         id="utclef"
         class="fill"
         d="m -50,-90 c -72,-41 -72,-158 52,-188 150,-10 220,188 90,256 -114,52 -275,0 -293,-136 -15,-181 93,-229 220,-334 88,-87 79,-133 62,-210 -51,33 -94,105 -89,186 17,267 36,374 49,574 6,96 -19,134 -77,135 -80,1 -126,-93 -61,-133 85,-41 133,101 31,105 23,17 92,37 90,-92 -10,-223 -39,-342 -50,-617 0,-90 0,-162 96,-232 56,72 63,230 22,289 -74,106 -257,168 -255,316 9,153 148,185 252,133 86,-65 29,-192 -80,-176 -71,12 -105,67 -59,124" />
      <use
         id="tclef"
         transform="matrix(0.045,0,0,0.045,0,6)"
         xlink:href="#utclef"
         x="0"
         y="0"
         width="100%"
         height="100%" />
    </defs>
    <defs
       id="defs15">
      <path
         id="HD"
         class="fill"
         d="m -2.7,-1.4 c 1.5,-2.8 6.9,0 5.3,2.7 -1.5,2.8 -6.9,0 -5.3,-2.7 M 5.6,0 c 0,-1.5 -2.2,-3 -5.6,-3 -3.4,0 -5.6,1.5 -5.6,3 0,1.5 2.2,3 5.6,3 3.4,0 5.6,-1.5 5.6,-3" />
    </defs>
  </g>
</svg>
