<?xml version="1.0" encoding="UTF-8" standalone="no"?>
<svg
   xmlns:dc="http://purl.org/dc/elements/1.1/"
   xmlns:cc="http://creativecommons.org/ns#"
   xmlns:rdf="http://www.w3.org/1999/02/22-rdf-syntax-ns#"
   xmlns:svg="http://www.w3.org/2000/svg"
   xmlns="http://www.w3.org/2000/svg"
   xmlns:xlink="http://www.w3.org/1999/xlink"
   xmlns:sodipodi="http://sodipodi.sourceforge.net/DTD/sodipodi-0.dtd"
   xmlns:inkscape="http://www.inkscape.org/namespaces/inkscape"
   version="1.1"
   color="#000000"
   width="15.591208"
   height="23.265505"
   id="svg477"
   sodipodi:docname="eigth_bottom_group_right.svg"
   inkscape:version="1.0.2 (e86c870879, 2021-01-15)">
  <metadata
     id="metadata483">
    <rdf:RDF>
      <cc:Work
         rdf:about="">
        <dc:format>image/svg+xml</dc:format>
        <dc:type
           rdf:resource="http://purl.org/dc/dcmitype/StillImage" />
        <dc:title>c1 (1) tune 1</dc:title>
      </cc:Work>
    </rdf:RDF>
  </metadata>
  <defs
     id="defs481">
    <defs
       id="defs12">
      <path
         id="utclef"
         class="fill"
         d="m -50,-90 c -72,-41 -72,-158 52,-188 150,-10 220,188 90,256 -114,52 -275,0 -293,-136 -15,-181 93,-229 220,-334 88,-87 79,-133 62,-210 -51,33 -94,105 -89,186 17,267 36,374 49,574 6,96 -19,134 -77,135 -80,1 -126,-93 -61,-133 85,-41 133,101 31,105 23,17 92,37 90,-92 -10,-223 -39,-342 -50,-617 0,-90 0,-162 96,-232 56,72 63,230 22,289 -74,106 -257,168 -255,316 9,153 148,185 252,133 86,-65 29,-192 -80,-176 -71,12 -105,67 -59,124" />
      <use
         id="tclef"
         transform="matrix(0.045,0,0,0.045,0,6)"
         xlink:href="#utclef"
         x="0"
         y="0"
         width="100%"
         height="100%" />
    </defs>
    <defs
       id="defs17">
      <path
         id="csig"
         class="fill"
         d="m 6,-5.3 c 0.9,0 2.3,0.7 2.4,2.2 -1.2,-2 -3.6,0.1 -1.6,1.7 2,1 3.8,-3.5 -0.8,-4.7 -2,-0.4 -6.4,1.3 -5.8,7 C 0.6,7.3 8.1,7.7 9.3,1.6 7,7.2 2.6,6.7 2.5,1.6 2,-2.8 3.2,-5.9 6,-5.3" />
    </defs>
    <defs
       id="defs24">
      <path
         id="hl"
         class="stroke"
         d="M -6,0 H 6" />
    </defs>
    <defs
       id="defs29">
      <ellipse
         id="hd"
         rx="4.0999999"
         ry="2.9000001"
         transform="rotate(-20)"
         class="fill"
         cx="0"
         cy="0" />
    </defs>
  </defs>
  <sodipodi:namedview
     pagecolor="#ffffff"
     bordercolor="#666666"
     borderopacity="1"
     objecttolerance="10"
     gridtolerance="10"
     guidetolerance="10"
     inkscape:pageopacity="0"
     inkscape:pageshadow="2"
     inkscape:window-width="1920"
     inkscape:window-height="1051"
     id="namedview479"
     showgrid="false"
     inkscape:zoom="1.6490879"
     inkscape:cx="85.883899"
     inkscape:cy="112.75333"
     inkscape:window-x="0"
     inkscape:window-y="0"
     inkscape:window-maximized="1"
     inkscape:current-layer="svg477"
     inkscape:document-rotation="0" />
  <style
     type="text/css"
     id="style2">
.fill {fill: currentColor}
.stroke {stroke: currentColor; fill: none}
text{white-space: pre}
</style>
  <title
     id="title4">c1 (1) tune 1</title>
  <!-- Creator: abcm2ps-8.14.11 -->
  <!-- CreationDate: Feb 24, 2021 14:13 -->
  <!-- CommandLine: -g c1 -->
  <g
     id="g477"
     transform="translate(-461.16016,44.027344)">
    <path
       id="path47-1"
       style="fill:currentColor;stroke-width:0.7"
       d="m 476.57227,-44.027344 -15.41211,1.441406 v 3.201172 l 15.41211,-1.441406 z" />
    <use
       x="244.39999"
       y="44"
       xlink:href="#hd"
       id="use61-3"
       style="stroke-width:0.7"
       width="100%"
       height="100%"
       transform="translate(228.37301,-67.826576)" />
    <path
       d="m 476.27301,-23.826576 v -19.2"
       class="stroke"
       id="path63-6"
       style="fill:none;stroke:currentColor;stroke-width:0.7" />
  </g>
</svg>
